ply
format ascii 1.0
comment VCGLIB generated
element vertex 144
property float x
property float y
property float z
element face 48
property list uchar int vertex_indices
end_header
0.003941 -0.15853 -0.015431 
-0.009671 -0.15745 -0.027377 
-0.05018 -0.2429 -0.024032 
0.003941 -0.15853 -0.015431 
-0.05018 -0.2429 -0.024032 
-0.059389 -0.27079 -0.018152 
0.003941 -0.15853 -0.015431 
-0.059389 -0.27079 -0.018152 
-0.047932 -0.23031 -0.00902 
0.003941 -0.15853 -0.015431 
-0.047932 -0.23031 -0.00902 
-0.00557 -0.15299 1e-005 
0.003941 -0.15853 -0.015431 
-0.00557 -0.15299 1e-005 
0.017745 -0.06808 0.004659 
0.003941 -0.15853 -0.015431 
0.017745 -0.06808 0.004659 
0.044148 -0.03965 -0.009215 
0.003941 -0.15853 -0.015431 
0.044148 -0.03965 -0.009215 
0.013917 -0.06929 -0.020903 
0.003941 -0.15853 -0.015431 
0.013917 -0.06929 -0.020903 
-0.009671 -0.15745 -0.027377 
-0.03957 -0.13424 0.009819 
-0.00557 -0.15299 1e-005 
-0.047932 -0.23031 -0.00902 
-0.03957 -0.13424 0.009819 
-0.047932 -0.23031 -0.00902 
-0.072987 -0.2406 -0.008161 
-0.03957 -0.13424 0.009819 
-0.072987 -0.2406 -0.008161 
-0.081606 -0.20526 -0.003929 
-0.03957 -0.13424 0.009819 
-0.081606 -0.20526 -0.003929 
-0.074938 -0.12101 0.010498 
-0.03957 -0.13424 0.009819 
-0.074938 -0.12101 0.010498 
-0.05135 -0.05293 0.015105 
-0.03957 -0.13424 0.009819 
-0.05135 -0.05293 0.015105 
-0.007521 -0.0334 0.018669 
-0.03957 -0.13424 0.009819 
-0.007521 -0.0334 0.018669 
0.017745 -0.06808 0.004659 
-0.03957 -0.13424 0.009819 
0.017745 -0.06808 0.004659 
-0.00557 -0.15299 1e-005 
-0.08855 -0.13204 -0.001448 
-0.074938 -0.12101 0.010498 
-0.081606 -0.20526 -0.003929 
-0.08855 -0.13204 -0.001448 
-0.081606 -0.20526 -0.003929 
-0.088909 -0.23979 -0.013689 
-0.08855 -0.13204 -0.001448 
-0.088909 -0.23979 -0.013689 
-0.083854 -0.22861 -0.018941 
-0.08855 -0.13204 -0.001448 
-0.083854 -0.22861 -0.018941 
-0.07904 -0.1497 -0.01689 
-0.08855 -0.13204 -0.001448 
-0.07904 -0.1497 -0.01689 
-0.055178 -0.06491 -0.010457 
-0.08855 -0.13204 -0.001448 
-0.055178 -0.06491 -0.010457 
-0.065069 -0.03092 0.007296 
-0.08855 -0.13204 -0.001448 
-0.065069 -0.03092 0.007296 
-0.05135 -0.05293 0.015105 
-0.08855 -0.13204 -0.001448 
-0.05135 -0.05293 0.015105 
-0.074938 -0.12101 0.010498 
-0.045039 -0.15634 -0.026698 
-0.07904 -0.1497 -0.01689 
-0.083854 -0.22861 -0.018941 
-0.045039 -0.15634 -0.026698 
-0.083854 -0.22861 -0.018941 
-0.075311 -0.26998 -0.02368 
-0.045039 -0.15634 -0.026698 
-0.075311 -0.26998 -0.02368 
-0.05018 -0.2429 -0.024032 
-0.045039 -0.15634 -0.026698 
-0.05018 -0.2429 -0.024032 
-0.009671 -0.15745 -0.027377 
-0.045039 -0.15634 -0.026698 
-0.009671 -0.15745 -0.027377 
0.013917 -0.06929 -0.020903 
-0.045039 -0.15634 -0.026698 
0.013917 -0.06929 -0.020903 
-0.0134 -0.03717 -0.020587 
-0.045039 -0.15634 -0.026698 
-0.0134 -0.03717 -0.020587 
-0.055178 -0.06491 -0.010457 
-0.045039 -0.15634 -0.026698 
-0.055178 -0.06491 -0.010457 
-0.07904 -0.1497 -0.01689 
0.000154 0.00138 0.001534 
-0.0134 -0.03717 -0.020587 
0.013917 -0.06929 -0.020903 
0.000154 0.00138 0.001534 
0.013917 -0.06929 -0.020903 
0.044148 -0.03965 -0.009215 
0.000154 0.00138 0.001534 
0.044148 -0.03965 -0.009215 
0.017745 -0.06808 0.004659 
0.000154 0.00138 0.001534 
0.017745 -0.06808 0.004659 
-0.007521 -0.0334 0.018669 
0.000154 0.00138 0.001534 
-0.007521 -0.0334 0.018669 
-0.05135 -0.05293 0.015105 
0.000154 0.00138 0.001534 
-0.05135 -0.05293 0.015105 
-0.065069 -0.03092 0.007296 
0.000154 0.00138 0.001534 
-0.065069 -0.03092 0.007296 
-0.055178 -0.06491 -0.010457 
0.000154 0.00138 0.001534 
-0.055178 -0.06491 -0.010457 
-0.0134 -0.03717 -0.020587 
-0.084763 -0.29196 -0.018414 
-0.075311 -0.26998 -0.02368 
-0.083854 -0.22861 -0.018941 
-0.084763 -0.29196 -0.018414 
-0.083854 -0.22861 -0.018941 
-0.088909 -0.23979 -0.013689 
-0.084763 -0.29196 -0.018414 
-0.088909 -0.23979 -0.013689 
-0.081606 -0.20526 -0.003929 
-0.084763 -0.29196 -0.018414 
-0.081606 -0.20526 -0.003929 
-0.072987 -0.2406 -0.008161 
-0.084763 -0.29196 -0.018414 
-0.072987 -0.2406 -0.008161 
-0.047932 -0.23031 -0.00902 
-0.084763 -0.29196 -0.018414 
-0.047932 -0.23031 -0.00902 
-0.059389 -0.27079 -0.018152 
-0.084763 -0.29196 -0.018414 
-0.059389 -0.27079 -0.018152 
-0.05018 -0.2429 -0.024032 
-0.084763 -0.29196 -0.018414 
-0.05018 -0.2429 -0.024032 
-0.075311 -0.26998 -0.02368 
3 0 1 2 
3 3 4 5 
3 6 7 8 
3 9 10 11 
3 12 13 14 
3 15 16 17 
3 18 19 20 
3 21 22 23 
3 24 25 26 
3 27 28 29 
3 30 31 32 
3 33 34 35 
3 36 37 38 
3 39 40 41 
3 42 43 44 
3 45 46 47 
3 48 49 50 
3 51 52 53 
3 54 55 56 
3 57 58 59 
3 60 61 62 
3 63 64 65 
3 66 67 68 
3 69 70 71 
3 72 73 74 
3 75 76 77 
3 78 79 80 
3 81 82 83 
3 84 85 86 
3 87 88 89 
3 90 91 92 
3 93 94 95 
3 96 97 98 
3 99 100 101 
3 102 103 104 
3 105 106 107 
3 108 109 110 
3 111 112 113 
3 114 115 116 
3 117 118 119 
3 120 121 122 
3 123 124 125 
3 126 127 128 
3 129 130 131 
3 132 133 134 
3 135 136 137 
3 138 139 140 
3 141 142 143 
