ply
format ascii 1.0
comment VCGLIB generated
element vertex 288
property float x
property float y
property float z
element face 144
property list uchar int vertex_indices
end_header
0.225153 -0.000104 -0.068842 
0.225153 0.025753 -0.039941 
0.398329 0.044641 -0.068355 
0.398329 -2.6e-005 -0.118875 
0.225153 -0.000104 -0.068842 
0.398329 -2.6e-005 -0.118875 
0.398329 -0.044694 -0.068355 
0.225153 -0.025961 -0.039941 
0.225153 -0.000104 -0.068842 
0.225153 -0.025961 -0.039941 
0.096874 -0.011884 -0.018832 
0.051977 -0.000182 -0.018732 
0.225153 -0.000104 -0.068842 
0.051977 -0.000182 -0.018732 
0.096874 0.01156 -0.018832 
0.225153 0.025753 -0.039941 
0.225153 -0.000104 0.16237 
0.398329 -2.6e-005 0.28528 
0.398329 0.044641 0.234761 
0.225153 0.025753 0.133468 
0.225153 -0.000104 0.16237 
0.225153 0.025753 0.133468 
0.096874 0.01156 0.058376 
0.051977 -0.000182 0.039382 
0.225153 -0.000104 0.16237 
0.051977 -0.000182 0.039382 
0.096874 -0.011884 0.058376 
0.225153 -0.025961 0.133468 
0.225153 -0.000104 0.16237 
0.225153 -0.025961 0.133468 
0.398329 -0.044694 0.234761 
0.398329 -2.6e-005 0.28528 
0.456054 0.067917 0.095349 
0.456054 0.050937 -0.077827 
0.398329 0.044641 -0.068355 
0.398329 0.05953 0.083203 
0.456054 0.067917 0.095349 
0.398329 0.05953 0.083203 
0.398329 0.044641 0.234761 
0.456054 0.050937 0.268525 
0.456054 0.067917 0.095349 
0.456054 0.050937 0.268525 
0.545053 0.048452 0.359194 
0.545053 0.064733 0.194877 
0.456054 0.067917 0.095349 
0.545053 0.064733 0.194877 
0.545053 0.048452 0.03056 
0.456054 0.050937 -0.077827 
0.225153 -0.03458 0.046764 
0.225153 -0.025961 -0.039941 
0.398329 -0.044694 -0.068355 
0.398329 -0.059583 0.083203 
0.225153 -0.03458 0.046764 
0.398329 -0.059583 0.083203 
0.398329 -0.044694 0.234761 
0.225153 -0.025961 0.133468 
0.225153 -0.03458 0.046764 
0.225153 -0.025961 0.133468 
0.096874 -0.011884 0.058376 
0.051977 -0.009319 0.010325 
0.225153 -0.03458 0.046764 
0.051977 -0.009319 0.010325 
0.096874 -0.011884 -0.018832 
0.225153 -0.025961 -0.039941 
-0.005748 -0.000209 -0.001821 
0.051977 -0.000182 -0.018732 
0.096874 -0.011884 -0.018832 
0.051977 -0.009319 0.010325 
-0.005748 -0.000209 -0.001821 
0.051977 -0.009319 0.010325 
0.096874 -0.011884 0.058376 
0.051977 -0.000182 0.039382 
-0.005748 -0.000209 -0.001821 
0.051977 -0.000182 0.039382 
0.096874 0.01156 0.058376 
0.051977 0.008954 0.010325 
-0.005748 -0.000209 -0.001821 
0.051977 0.008954 0.010325 
0.096874 0.01156 -0.018832 
0.051977 -0.000182 -0.018732 
0.225153 0.034371 0.046764 
0.225153 0.025753 0.133468 
0.398329 0.044641 0.234761 
0.398329 0.05953 0.083203 
0.225153 0.034371 0.046764 
0.398329 0.05953 0.083203 
0.398329 0.044641 -0.068355 
0.225153 0.025753 -0.039941 
0.225153 0.034371 0.046764 
0.225153 0.025753 -0.039941 
0.096874 0.01156 -0.018832 
0.051977 0.008954 0.010325 
0.225153 0.034371 0.046764 
0.051977 0.008954 0.010325 
0.096874 0.01156 0.058376 
0.225153 0.025753 0.133468 
0.812049 0.055181 0.493461 
0.812049 0.040995 0.355722 
0.545053 0.048452 0.03056 
0.545053 0.064733 0.194877 
0.812049 0.055181 0.493461 
0.545053 0.064733 0.194877 
0.545053 0.048452 0.359194 
0.812049 0.040995 0.631201 
0.812049 0.055181 0.493461 
0.812049 0.040995 0.631201 
1.2739 0.029295 0.65463 
1.2739 0.039998 0.55616 
0.812049 0.055181 0.493461 
1.2739 0.039998 0.55616 
1.2739 0.029295 0.457691 
0.812049 0.040995 0.355722 
0.456054 -0 -0.135552 
0.456054 -0.050938 -0.077827 
0.398329 -0.044694 -0.068355 
0.398329 -2.6e-005 -0.118875 
0.456054 -0 -0.135552 
0.398329 -2.6e-005 -0.118875 
0.398329 0.044641 -0.068355 
0.456054 0.050937 -0.077827 
0.456054 -0 -0.135552 
0.456054 0.050937 -0.077827 
0.545053 0.048452 0.03056 
0.545053 -0.00039 -0.024212 
0.456054 -0 -0.135552 
0.545053 -0.00039 -0.024212 
0.545053 -0.049233 0.03056 
0.456054 -0.050938 -0.077827 
0.456054 -0 0.32625 
0.456054 0.050937 0.268525 
0.398329 0.044641 0.234761 
0.398329 -2.6e-005 0.28528 
0.456054 -0 0.32625 
0.398329 -2.6e-005 0.28528 
0.398329 -0.044694 0.234761 
0.456054 -0.050938 0.268525 
0.456054 -0 0.32625 
0.456054 -0.050938 0.268525 
0.545053 -0.049233 0.359194 
0.545053 -0.00039 0.413966 
0.456054 -0 0.32625 
0.545053 -0.00039 0.413966 
0.545053 0.048452 0.359194 
0.456054 0.050937 0.268525 
0.456054 -0.067917 0.095349 
0.456054 -0.050938 0.268525 
0.398329 -0.044694 0.234761 
0.398329 -0.059583 0.083203 
0.456054 -0.067917 0.095349 
0.398329 -0.059583 0.083203 
0.398329 -0.044694 -0.068355 
0.456054 -0.050938 -0.077827 
0.456054 -0.067917 0.095349 
0.456054 -0.050938 -0.077827 
0.545053 -0.049233 0.03056 
0.545053 -0.065514 0.194877 
0.456054 -0.067917 0.095349 
0.545053 -0.065514 0.194877 
0.545053 -0.049233 0.359194 
0.456054 -0.050938 0.268525 
1.94746 -0.026819 -0.051968 
1.94746 -0.020976 -0.000436 
1.2739 -0.034922 0.65463 
1.2739 -0.045625 0.55616 
1.94746 -0.026819 -0.051968 
1.2739 -0.045625 0.55616 
1.2739 -0.034922 0.457691 
1.94746 -0.020976 -0.103501 
1.94746 -0.026819 -0.051968 
1.94746 -0.020976 -0.103501 
2.38048 -0.011681 -0.599287 
2.53203 -0.010123 -0.759624 
1.94746 -0.026819 -0.051968 
2.53203 -0.010123 -0.759624 
2.38048 -0.011681 -0.553029 
1.94746 -0.020976 -0.000436 
0.812049 -0.058303 0.493461 
0.812049 -0.044118 0.631201 
0.545053 -0.049233 0.359194 
0.545053 -0.065514 0.194877 
0.812049 -0.058303 0.493461 
0.545053 -0.065514 0.194877 
0.545053 -0.049233 0.03056 
0.812049 -0.044117 0.355722 
0.812049 -0.058303 0.493461 
0.812049 -0.044117 0.355722 
1.2739 -0.034922 0.457691 
1.2739 -0.045625 0.55616 
0.812049 -0.058303 0.493461 
1.2739 -0.045625 0.55616 
1.2739 -0.034922 0.65463 
0.812049 -0.044118 0.631201 
0.812049 -0.001561 0.309809 
0.812049 -0.044117 0.355722 
0.545053 -0.049233 0.03056 
0.545053 -0.00039 -0.024212 
0.812049 -0.001561 0.309809 
0.545053 -0.00039 -0.024212 
0.545053 0.048452 0.03056 
0.812049 0.040995 0.355722 
0.812049 -0.001561 0.309809 
0.812049 0.040995 0.355722 
1.2739 0.029295 0.457691 
1.2739 -0.002813 0.424867 
0.812049 -0.001561 0.309809 
1.2739 -0.002813 0.424867 
1.2739 -0.034922 0.457691 
0.812049 -0.044117 0.355722 
0.812049 -0.001561 0.677114 
0.812049 0.040995 0.631201 
0.545053 0.048452 0.359194 
0.545053 -0.00039 0.413966 
0.812049 -0.001561 0.677114 
0.545053 -0.00039 0.413966 
0.545053 -0.049233 0.359194 
0.812049 -0.044118 0.631201 
0.812049 -0.001561 0.677114 
0.812049 -0.044118 0.631201 
1.2739 -0.034922 0.65463 
1.2739 -0.002813 0.687453 
0.812049 -0.001561 0.677114 
1.2739 -0.002813 0.687453 
1.2739 0.029295 0.65463 
0.812049 0.040995 0.631201 
2.72689 -0.003776 -0.99551 
2.53203 -0.003694 -0.77731 
2.38048 0.00442 -0.599287 
2.53203 0.002735 -0.759624 
2.72689 -0.003776 -0.99551 
2.53203 0.002735 -0.759624 
2.38048 0.00442 -0.553029 
2.53203 -0.003694 -0.741939 
2.72689 -0.003776 -0.99551 
2.53203 -0.003694 -0.741939 
2.38048 -0.011681 -0.553029 
2.53203 -0.010123 -0.759624 
2.72689 -0.003776 -0.99551 
2.53203 -0.010123 -0.759624 
2.38048 -0.011681 -0.599287 
2.53203 -0.003694 -0.77731 
1.94746 -0.003449 -0.120678 
1.94746 -0.020976 -0.103501 
1.2739 -0.034922 0.457691 
1.2739 -0.002813 0.424867 
1.94746 -0.003449 -0.120678 
1.2739 -0.002813 0.424867 
1.2739 0.029295 0.457691 
1.94746 0.014078 -0.103501 
1.94746 -0.003449 -0.120678 
1.94746 0.014078 -0.103501 
2.38048 0.00442 -0.599287 
2.53203 -0.003694 -0.77731 
1.94746 -0.003449 -0.120678 
2.53203 -0.003694 -0.77731 
2.38048 -0.011681 -0.599287 
1.94746 -0.020976 -0.103501 
1.94746 -0.003449 0.016742 
1.94746 0.014078 -0.000436 
1.2739 0.029295 0.65463 
1.2739 -0.002813 0.687453 
1.94746 -0.003449 0.016742 
1.2739 -0.002813 0.687453 
1.2739 -0.034922 0.65463 
1.94746 -0.020976 -0.000436 
1.94746 -0.003449 0.016742 
1.94746 -0.020976 -0.000436 
2.38048 -0.011681 -0.553029 
2.53203 -0.003694 -0.741939 
1.94746 -0.003449 0.016742 
2.53203 -0.003694 -0.741939 
2.38048 0.00442 -0.553029 
1.94746 0.014078 -0.000436 
1.94746 0.019921 -0.051968 
1.94746 0.014078 -0.103501 
1.2739 0.029295 0.457691 
1.2739 0.039998 0.55616 
1.94746 0.019921 -0.051968 
1.2739 0.039998 0.55616 
1.2739 0.029295 0.65463 
1.94746 0.014078 -0.000436 
1.94746 0.019921 -0.051968 
1.94746 0.014078 -0.000436 
2.38048 0.00442 -0.553029 
2.53203 0.002735 -0.759624 
1.94746 0.019921 -0.051968 
2.53203 0.002735 -0.759624 
2.38048 0.00442 -0.599287 
1.94746 0.014078 -0.103501 
3 0 1 2 
3 0 2 3 
3 4 5 6 
3 4 6 7 
3 8 9 10 
3 8 10 11 
3 12 13 14 
3 12 14 15 
3 16 17 18 
3 16 18 19 
3 20 21 22 
3 20 22 23 
3 24 25 26 
3 24 26 27 
3 28 29 30 
3 28 30 31 
3 32 33 34 
3 32 34 35 
3 36 37 38 
3 36 38 39 
3 40 41 42 
3 40 42 43 
3 44 45 46 
3 44 46 47 
3 48 49 50 
3 48 50 51 
3 52 53 54 
3 52 54 55 
3 56 57 58 
3 56 58 59 
3 60 61 62 
3 60 62 63 
3 64 65 66 
3 64 66 67 
3 68 69 70 
3 68 70 71 
3 72 73 74 
3 72 74 75 
3 76 77 78 
3 76 78 79 
3 80 81 82 
3 80 82 83 
3 84 85 86 
3 84 86 87 
3 88 89 90 
3 88 90 91 
3 92 93 94 
3 92 94 95 
3 96 97 98 
3 96 98 99 
3 100 101 102 
3 100 102 103 
3 104 105 106 
3 104 106 107 
3 108 109 110 
3 108 110 111 
3 112 113 114 
3 112 114 115 
3 116 117 118 
3 116 118 119 
3 120 121 122 
3 120 122 123 
3 124 125 126 
3 124 126 127 
3 128 129 130 
3 128 130 131 
3 132 133 134 
3 132 134 135 
3 136 137 138 
3 136 138 139 
3 140 141 142 
3 140 142 143 
3 144 145 146 
3 144 146 147 
3 148 149 150 
3 148 150 151 
3 152 153 154 
3 152 154 155 
3 156 157 158 
3 156 158 159 
3 160 161 162 
3 160 162 163 
3 164 165 166 
3 164 166 167 
3 168 169 170 
3 168 170 171 
3 172 173 174 
3 172 174 175 
3 176 177 178 
3 176 178 179 
3 180 181 182 
3 180 182 183 
3 184 185 186 
3 184 186 187 
3 188 189 190 
3 188 190 191 
3 192 193 194 
3 192 194 195 
3 196 197 198 
3 196 198 199 
3 200 201 202 
3 200 202 203 
3 204 205 206 
3 204 206 207 
3 208 209 210 
3 208 210 211 
3 212 213 214 
3 212 214 215 
3 216 217 218 
3 216 218 219 
3 220 221 222 
3 220 222 223 
3 224 225 226 
3 224 226 227 
3 228 229 230 
3 228 230 231 
3 232 233 234 
3 232 234 235 
3 236 237 238 
3 236 238 239 
3 240 241 242 
3 240 242 243 
3 244 245 246 
3 244 246 247 
3 248 249 250 
3 248 250 251 
3 252 253 254 
3 252 254 255 
3 256 257 258 
3 256 258 259 
3 260 261 262 
3 260 262 263 
3 264 265 266 
3 264 266 267 
3 268 269 270 
3 268 270 271 
3 272 273 274 
3 272 274 275 
3 276 277 278 
3 276 278 279 
3 280 281 282 
3 280 282 283 
3 284 285 286 
3 284 286 287 
