ply
format ascii 1.0
comment VCGLIB generated
element vertex 160
property float x
property float y
property float z
element face 80
property list uchar int vertex_indices
end_header
-0.008678 0.011901 -0.000572 
-0.087581 0.032048 0.00146 
-0.146915 0.043153 0.009171 
-0.084754 0.027339 0.009569 
-0.008678 0.011901 -0.000572 
-0.084754 0.027339 0.009569 
-0.142351 0.035198 0.009146 
-0.083252 0.022285 0.001495 
-0.008678 0.011901 -0.000572 
-0.083252 0.022285 0.001495 
-0.143286 0.034926 -0.003029 
-0.086077 0.026995 -0.006614 
-0.008678 0.011901 -0.000572 
-0.086077 0.026995 -0.006614 
-0.14785 0.042883 -0.003003 
-0.087581 0.032048 0.00146 
-0.594306 -0.310057 0.024468 
-0.598849 -0.30522 0.026248 
-0.54535 0.014274 0.009958 
-0.539281 0.007513 0.007214 
-0.594306 -0.310057 0.024468 
-0.539281 0.007513 0.007214 
-0.532913 0.000887 0.009663 
-0.589586 -0.314803 0.026018 
-0.594306 -0.310057 0.024468 
-0.589586 -0.314803 0.026018 
-0.575721 -0.559175 0.037023 
-0.572612 -0.642868 0.040201 
-0.594306 -0.310057 0.024468 
-0.572612 -0.642868 0.040201 
-0.580649 -0.553942 0.037143 
-0.598849 -0.30522 0.026248 
-0.316408 0.072697 -0.003582 
-0.320669 0.078868 -0.000711 
-0.14785 0.042883 -0.003003 
-0.086077 0.026995 -0.006614 
-0.316408 0.072697 -0.003582 
-0.086077 0.026995 -0.006614 
-0.143286 0.034926 -0.003029 
-0.311757 0.066659 -0.000851 
-0.316408 0.072697 -0.003582 
-0.311757 0.066659 -0.000851 
-0.532913 0.000887 0.009663 
-0.539281 0.007513 0.007214 
-0.316408 0.072697 -0.003582 
-0.539281 0.007513 0.007214 
-0.54535 0.014274 0.009958 
-0.320669 0.078868 -0.000711 
-0.314848 0.07323 0.018832 
-0.310588 0.067059 0.01596 
-0.142351 0.035198 0.009146 
-0.084754 0.027339 0.009569 
-0.314848 0.07323 0.018832 
-0.084754 0.027339 0.009569 
-0.146915 0.043153 0.009171 
-0.319499 0.079268 0.016101 
-0.314848 0.07323 0.018832 
-0.319499 0.079268 0.016101 
-0.544456 0.014683 0.025535 
-0.538088 0.008057 0.027984 
-0.314848 0.07323 0.018832 
-0.538088 0.008057 0.027984 
-0.532019 0.001296 0.02524 
-0.310588 0.067059 0.01596 
-0.309688 0.064824 0.007531 
-0.311757 0.066659 -0.000851 
-0.143286 0.034926 -0.003029 
-0.083252 0.022285 0.001495 
-0.309688 0.064824 0.007531 
-0.083252 0.022285 0.001495 
-0.142351 0.035198 0.009146 
-0.310588 0.067059 0.01596 
-0.309688 0.064824 0.007531 
-0.310588 0.067059 0.01596 
-0.532019 0.001296 0.02524 
-0.530394 -0.00114 0.017403 
-0.309688 0.064824 0.007531 
-0.530394 -0.00114 0.017403 
-0.532913 0.000887 0.009663 
-0.311757 0.066659 -0.000851 
-0.321569 0.081103 0.007718 
-0.319499 0.079268 0.016101 
-0.146915 0.043153 0.009171 
-0.087581 0.032048 0.00146 
-0.321569 0.081103 0.007718 
-0.087581 0.032048 0.00146 
-0.14785 0.042883 -0.003003 
-0.320669 0.078868 -0.000711 
-0.321569 0.081103 0.007718 
-0.320669 0.078868 -0.000711 
-0.54535 0.014274 0.009958 
-0.546975 0.016709 0.017795 
-0.321569 0.081103 0.007718 
-0.546975 0.016709 0.017795 
-0.544456 0.014683 0.025535 
-0.319499 0.079268 0.016101 
-0.565328 -0.753779 0.046438 
-0.572357 -0.642738 0.045019 
-0.58038 -0.553803 0.042244 
-0.574942 -0.640111 0.042667 
-0.565328 -0.753779 0.046438 
-0.574942 -0.640111 0.042667 
-0.580649 -0.553942 0.037143 
-0.572612 -0.642868 0.040201 
-0.565328 -0.753779 0.046438 
-0.572612 -0.642868 0.040201 
-0.575721 -0.559175 0.037023 
-0.570027 -0.645496 0.042553 
-0.565328 -0.753779 0.046438 
-0.570027 -0.645496 0.042553 
-0.575451 -0.559037 0.042125 
-0.572357 -0.642738 0.045019 
-0.593601 -0.309696 0.03779 
-0.589058 -0.314532 0.03601 
-0.532019 0.001296 0.02524 
-0.538088 0.008057 0.027984 
-0.593601 -0.309696 0.03779 
-0.538088 0.008057 0.027984 
-0.544456 0.014683 0.025535 
-0.598321 -0.304949 0.03624 
-0.593601 -0.309696 0.03779 
-0.598321 -0.304949 0.03624 
-0.58038 -0.553803 0.042244 
-0.572357 -0.642738 0.045019 
-0.593601 -0.309696 0.03779 
-0.572357 -0.642738 0.045019 
-0.575451 -0.559037 0.042125 
-0.589058 -0.314532 0.03601 
-0.587778 -0.316265 0.030975 
-0.589586 -0.314803 0.026018 
-0.532913 0.000887 0.009663 
-0.530394 -0.00114 0.017403 
-0.587778 -0.316265 0.030975 
-0.530394 -0.00114 0.017403 
-0.532019 0.001296 0.02524 
-0.589058 -0.314532 0.03601 
-0.587778 -0.316265 0.030975 
-0.589058 -0.314532 0.03601 
-0.575451 -0.559037 0.042125 
-0.570027 -0.645496 0.042553 
-0.587778 -0.316265 0.030975 
-0.570027 -0.645496 0.042553 
-0.575721 -0.559175 0.037023 
-0.589586 -0.314803 0.026018 
-0.600129 -0.303488 0.031283 
-0.598321 -0.304949 0.03624 
-0.544456 0.014683 0.025535 
-0.546975 0.016709 0.017795 
-0.600129 -0.303488 0.031283 
-0.546975 0.016709 0.017795 
-0.54535 0.014274 0.009958 
-0.598849 -0.30522 0.026248 
-0.600129 -0.303488 0.031283 
-0.598849 -0.30522 0.026248 
-0.580649 -0.553942 0.037143 
-0.574942 -0.640111 0.042667 
-0.600129 -0.303488 0.031283 
-0.574942 -0.640111 0.042667 
-0.58038 -0.553803 0.042244 
-0.598321 -0.304949 0.03624 
3 0 1 2 
3 0 2 3 
3 4 5 6 
3 4 6 7 
3 8 9 10 
3 8 10 11 
3 12 13 14 
3 12 14 15 
3 16 17 18 
3 16 18 19 
3 20 21 22 
3 20 22 23 
3 24 25 26 
3 24 26 27 
3 28 29 30 
3 28 30 31 
3 32 33 34 
3 32 34 35 
3 36 37 38 
3 36 38 39 
3 40 41 42 
3 40 42 43 
3 44 45 46 
3 44 46 47 
3 48 49 50 
3 48 50 51 
3 52 53 54 
3 52 54 55 
3 56 57 58 
3 56 58 59 
3 60 61 62 
3 60 62 63 
3 64 65 66 
3 64 66 67 
3 68 69 70 
3 68 70 71 
3 72 73 74 
3 72 74 75 
3 76 77 78 
3 76 78 79 
3 80 81 82 
3 80 82 83 
3 84 85 86 
3 84 86 87 
3 88 89 90 
3 88 90 91 
3 92 93 94 
3 92 94 95 
3 96 97 98 
3 96 98 99 
3 100 101 102 
3 100 102 103 
3 104 105 106 
3 104 106 107 
3 108 109 110 
3 108 110 111 
3 112 113 114 
3 112 114 115 
3 116 117 118 
3 116 118 119 
3 120 121 122 
3 120 122 123 
3 124 125 126 
3 124 126 127 
3 128 129 130 
3 128 130 131 
3 132 133 134 
3 132 134 135 
3 136 137 138 
3 136 138 139 
3 140 141 142 
3 140 142 143 
3 144 145 146 
3 144 146 147 
3 148 149 150 
3 148 150 151 
3 152 153 154 
3 152 154 155 
3 156 157 158 
3 156 158 159 
