ply
format ascii 1.0
comment VCGLIB generated
element vertex 984
property float x
property float y
property float z
element face 328
property list uchar int vertex_indices
end_header
0.111252 -0.309977 0.341373 
0.101067 -0.423867 0.339975 
0.147433 -0.406997 0.379445 
0.111252 -0.309977 0.341373 
0.147433 -0.406997 0.379445 
0.160561 -0.323807 0.396459 
0.111252 -0.309977 0.341373 
0.160561 -0.323807 0.396459 
0.198528 -0.250367 0.373032 
0.111252 -0.309977 0.341373 
0.198528 -0.250367 0.373032 
0.170044 -0.212407 0.331317 
0.111252 -0.309977 0.341373 
0.170044 -0.212407 0.331317 
0.161482 -0.241977 0.282939 
0.111252 -0.309977 0.341373 
0.161482 -0.241977 0.282939 
0.11055 -0.312467 0.274833 
0.111252 -0.309977 0.341373 
0.11055 -0.312467 0.274833 
0.110388 -0.398607 0.289352 
0.111252 -0.309977 0.341373 
0.110388 -0.398607 0.289352 
0.101067 -0.423867 0.339975 
0.25445 -0.201657 0.312694 
0.170044 -0.212407 0.331317 
0.198528 -0.250367 0.373032 
0.25445 -0.201657 0.312694 
0.198528 -0.250367 0.373032 
0.267959 -0.242567 0.37495 
0.25445 -0.201657 0.312694 
0.267959 -0.242567 0.37495 
0.306542 -0.286647 0.34758 
0.25445 -0.201657 0.312694 
0.306542 -0.286647 0.34758 
0.315863 -0.261387 0.296957 
0.25445 -0.201657 0.312694 
0.315863 -0.261387 0.296957 
0.269496 -0.278247 0.257486 
0.25445 -0.201657 0.312694 
0.269496 -0.278247 0.257486 
0.217948 -0.231227 0.253324 
0.25445 -0.201657 0.312694 
0.217948 -0.231227 0.253324 
0.161482 -0.241977 0.282939 
0.25445 -0.201657 0.312694 
0.161482 -0.241977 0.282939 
0.170044 -0.212407 0.331317 
0.305677 -0.375277 0.295559 
0.315863 -0.261387 0.296957 
0.306542 -0.286647 0.34758 
0.305677 -0.375277 0.295559 
0.306542 -0.286647 0.34758 
0.30638 -0.372777 0.362099 
0.305677 -0.375277 0.295559 
0.30638 -0.372777 0.362099 
0.255447 -0.443277 0.353993 
0.305677 -0.375277 0.295559 
0.255447 -0.443277 0.353993 
0.246886 -0.472837 0.305614 
0.305677 -0.375277 0.295559 
0.246886 -0.472837 0.305614 
0.218402 -0.434887 0.263899 
0.305677 -0.375277 0.295559 
0.218402 -0.434887 0.263899 
0.256369 -0.361447 0.240472 
0.305677 -0.375277 0.295559 
0.256369 -0.361447 0.240472 
0.269496 -0.278247 0.257486 
0.305677 -0.375277 0.295559 
0.269496 -0.278247 0.257486 
0.315863 -0.261387 0.296957 
0.16248 -0.483597 0.324238 
0.246886 -0.472837 0.305614 
0.255447 -0.443277 0.353993 
0.16248 -0.483597 0.324238 
0.255447 -0.443277 0.353993 
0.198982 -0.454017 0.383608 
0.16248 -0.483597 0.324238 
0.198982 -0.454017 0.383608 
0.147433 -0.406997 0.379445 
0.16248 -0.483597 0.324238 
0.147433 -0.406997 0.379445 
0.101067 -0.423867 0.339975 
0.16248 -0.483597 0.324238 
0.101067 -0.423867 0.339975 
0.110388 -0.398607 0.289352 
0.16248 -0.483597 0.324238 
0.110388 -0.398607 0.289352 
0.148971 -0.442687 0.261982 
0.16248 -0.483597 0.324238 
0.148971 -0.442687 0.261982 
0.218402 -0.434887 0.263899 
0.16248 -0.483597 0.324238 
0.218402 -0.434887 0.263899 
0.246886 -0.472837 0.305614 
0.175124 -0.335067 0.237382 
0.148971 -0.442687 0.261982 
0.110388 -0.398607 0.289352 
0.175124 -0.335067 0.237382 
0.110388 -0.398607 0.289352 
0.11055 -0.312467 0.274833 
0.175124 -0.335067 0.237382 
0.11055 -0.312467 0.274833 
0.161482 -0.241977 0.282939 
0.175124 -0.335067 0.237382 
0.161482 -0.241977 0.282939 
0.217948 -0.231227 0.253324 
0.175124 -0.335067 0.237382 
0.217948 -0.231227 0.253324 
0.269496 -0.278247 0.257486 
0.175124 -0.335067 0.237382 
0.269496 -0.278247 0.257486 
0.256369 -0.361447 0.240472 
0.175124 -0.335067 0.237382 
0.256369 -0.361447 0.240472 
0.218402 -0.434887 0.263899 
0.175124 -0.335067 0.237382 
0.218402 -0.434887 0.263899 
0.148971 -0.442687 0.261982 
0.241805 -0.350177 0.39955 
0.198982 -0.454017 0.383608 
0.255447 -0.443277 0.353993 
0.241805 -0.350177 0.39955 
0.255447 -0.443277 0.353993 
0.30638 -0.372777 0.362099 
0.241805 -0.350177 0.39955 
0.30638 -0.372777 0.362099 
0.306542 -0.286647 0.34758 
0.241805 -0.350177 0.39955 
0.306542 -0.286647 0.34758 
0.267959 -0.242567 0.37495 
0.241805 -0.350177 0.39955 
0.267959 -0.242567 0.37495 
0.198528 -0.250367 0.373032 
0.241805 -0.350177 0.39955 
0.198528 -0.250367 0.373032 
0.160561 -0.323807 0.396459 
0.241805 -0.350177 0.39955 
0.160561 -0.323807 0.396459 
0.147433 -0.406997 0.379445 
0.241805 -0.350177 0.39955 
0.147433 -0.406997 0.379445 
0.198982 -0.454017 0.383608 
0.426292 -0.122677 0.095798 
0.320518 -0.026599 0.057262 
0.238249 -0.051507 -0.097831 
0.426292 -0.122677 0.095798 
0.238249 -0.051507 -0.097831 
0.320518 -0.122677 -0.127065 
0.426292 -0.122677 0.095798 
0.320518 -0.122677 -0.127065 
0.297326 -0.318507 -0.079277 
0.426292 -0.122677 0.095798 
0.297326 -0.318507 -0.079277 
0.395103 -0.312227 0.118837 
0.426292 -0.122677 0.095798 
0.395103 -0.312227 0.118837 
0.297326 -0.318507 0.314697 
0.426292 -0.122677 0.095798 
0.297326 -0.318507 0.314697 
0.320518 -0.122677 0.318661 
0.426292 -0.122677 0.095798 
0.320518 -0.122677 0.318661 
0.238249 -0.051507 0.232337 
0.426292 -0.122677 0.095798 
0.238249 -0.051507 0.232337 
0.320518 -0.026599 0.057262 
0.123645 -0.998577 0.023212 
0.194683 -0.905097 0.038708 
0.181721 -0.843547 -0.014987 
0.123645 -0.998577 0.023212 
0.181721 -0.843547 -0.014987 
0.094333 -0.930187 -0.022904 
0.123645 -0.998577 0.023212 
0.094333 -0.930187 -0.022904 
0.069881 -0.898327 -0.015682 
0.123645 -0.998577 0.023212 
0.069881 -0.898327 -0.015682 
0.075382 -0.946187 0.025862 
0.123645 -0.998577 0.023212 
0.075382 -0.946187 0.025862 
0.069881 -0.898327 0.078939 
0.123645 -0.998577 0.023212 
0.069881 -0.898327 0.078939 
0.094333 -0.930187 0.091299 
0.123645 -0.998577 0.023212 
0.094333 -0.930187 0.091299 
0.181721 -0.843547 0.112498 
0.123645 -0.998577 0.023212 
0.181721 -0.843547 0.112498 
0.194683 -0.905097 0.038708 
-0.419902 -0.122677 0.095798 
-0.387312 -0.312227 0.121241 
-0.289485 -0.318507 -0.07713 
-0.419902 -0.122677 0.095798 
-0.289485 -0.318507 -0.07713 
-0.314127 -0.122677 -0.127065 
-0.419902 -0.122677 0.095798 
-0.314127 -0.122677 -0.127065 
-0.231859 -0.051507 -0.097831 
-0.419902 -0.122677 0.095798 
-0.231859 -0.051507 -0.097831 
-0.314127 -0.026599 0.057262 
-0.419902 -0.122677 0.095798 
-0.314127 -0.026599 0.057262 
-0.231859 -0.051507 0.232337 
-0.419902 -0.122677 0.095798 
-0.231859 -0.051507 0.232337 
-0.314127 -0.122677 0.318661 
-0.419902 -0.122677 0.095798 
-0.314127 -0.122677 0.318661 
-0.289485 -0.318507 0.316156 
-0.419902 -0.122677 0.095798 
-0.289485 -0.318507 0.316156 
-0.387312 -0.312227 0.121241 
0.003195 0.005427 0.044417 
-0.314127 -0.026599 0.057262 
-0.231859 -0.051507 -0.097831 
0.003195 0.005427 0.044417 
-0.231859 -0.051507 -0.097831 
0.003195 -0.026599 -0.165601 
0.003195 0.005427 0.044417 
0.003195 -0.026599 -0.165601 
0.238249 -0.051507 -0.097831 
0.003195 0.005427 0.044417 
0.238249 -0.051507 -0.097831 
0.320518 -0.026599 0.057262 
0.003195 0.005427 0.044417 
0.320518 -0.026599 0.057262 
0.238249 -0.051507 0.232337 
0.003195 0.005427 0.044417 
0.238249 -0.051507 0.232337 
0.003195 -0.026599 0.280126 
0.003195 0.005427 0.044417 
0.003195 -0.026599 0.280126 
-0.231859 -0.051507 0.232337 
0.003195 0.005427 0.044417 
-0.231859 -0.051507 0.232337 
-0.314127 -0.026599 0.057262 
0.003195 -0.122677 0.392949 
0.003195 -0.026599 0.280126 
0.238249 -0.051507 0.232337 
0.003195 -0.122677 0.392949 
0.238249 -0.051507 0.232337 
0.320518 -0.122677 0.318661 
0.003195 -0.122677 0.392949 
0.320518 -0.122677 0.318661 
0.297326 -0.318507 0.314697 
0.003195 -0.122677 0.392949 
0.297326 -0.318507 0.314697 
0.003995 -0.337317 0.370229 
0.003195 -0.122677 0.392949 
0.003995 -0.337317 0.370229 
-0.289485 -0.318507 0.316156 
0.003195 -0.122677 0.392949 
-0.289485 -0.318507 0.316156 
-0.314127 -0.122677 0.318661 
0.003195 -0.122677 0.392949 
-0.314127 -0.122677 0.318661 
-0.231859 -0.051507 0.232337 
0.003195 -0.122677 0.392949 
-0.231859 -0.051507 0.232337 
0.003195 -0.026599 0.280126 
0.003195 -0.122677 -0.201353 
0.003195 -0.026599 -0.165601 
-0.231859 -0.051507 -0.097831 
0.003195 -0.122677 -0.201353 
-0.231859 -0.051507 -0.097831 
-0.314127 -0.122677 -0.127065 
0.003195 -0.122677 -0.201353 
-0.314127 -0.122677 -0.127065 
-0.289485 -0.318507 -0.07713 
0.003195 -0.122677 -0.201353 
-0.289485 -0.318507 -0.07713 
0.003995 -0.337317 -0.141574 
0.003195 -0.122677 -0.201353 
0.003995 -0.337317 -0.141574 
0.297326 -0.318507 -0.079277 
0.003195 -0.122677 -0.201353 
0.297326 -0.318507 -0.079277 
0.320518 -0.122677 -0.127065 
0.003195 -0.122677 -0.201353 
0.320518 -0.122677 -0.127065 
0.238249 -0.051507 -0.097831 
0.003195 -0.122677 -0.201353 
0.238249 -0.051507 -0.097831 
0.003195 -0.026599 -0.165601 
-0.289544 -0.624677 0.094811 
-0.178493 -0.905097 0.055535 
-0.166531 -0.843547 0.000734 
-0.289544 -0.624677 0.094811 
-0.166531 -0.843547 0.000734 
-0.215559 -0.649767 -0.030087 
-0.289544 -0.624677 0.094811 
-0.215559 -0.649767 -0.030087 
-0.289485 -0.318507 -0.07713 
-0.289544 -0.624677 0.094811 
-0.289485 -0.318507 -0.07713 
-0.387312 -0.312227 0.121241 
-0.289544 -0.624677 0.094811 
-0.387312 -0.312227 0.121241 
-0.289485 -0.318507 0.316156 
-0.289544 -0.624677 0.094811 
-0.289485 -0.318507 0.316156 
-0.215559 -0.649767 0.20588 
-0.289544 -0.624677 0.094811 
-0.215559 -0.649767 0.20588 
-0.166531 -0.843547 0.124554 
-0.289544 -0.624677 0.094811 
-0.166531 -0.843547 0.124554 
-0.178493 -0.905097 0.055535 
0.301534 -0.624677 0.085195 
0.395103 -0.312227 0.118837 
0.297326 -0.318507 -0.079277 
0.301534 -0.624677 0.085195 
0.297326 -0.318507 -0.079277 
0.227749 -0.649767 -0.038673 
0.301534 -0.624677 0.085195 
0.227749 -0.649767 -0.038673 
0.181721 -0.843547 -0.014987 
0.301534 -0.624677 0.085195 
0.181721 -0.843547 -0.014987 
0.194683 -0.905097 0.038708 
0.301534 -0.624677 0.085195 
0.194683 -0.905097 0.038708 
0.181721 -0.843547 0.112498 
0.301534 -0.624677 0.085195 
0.181721 -0.843547 0.112498 
0.227749 -0.649767 0.200043 
0.301534 -0.624677 0.085195 
0.227749 -0.649767 0.200043 
0.297326 -0.318507 0.314697 
0.301534 -0.624677 0.085195 
0.297326 -0.318507 0.314697 
0.395103 -0.312227 0.118837 
0.006395 -0.725047 0.199308 
0.003995 -0.337317 0.370229 
0.297326 -0.318507 0.314697 
0.006395 -0.725047 0.199308 
0.297326 -0.318507 0.314697 
0.227749 -0.649767 0.200043 
0.006395 -0.725047 0.199308 
0.227749 -0.649767 0.200043 
0.181721 -0.843547 0.112498 
0.006395 -0.725047 0.199308 
0.181721 -0.843547 0.112498 
0.094333 -0.930187 0.091299 
0.006395 -0.725047 0.199308 
0.094333 -0.930187 0.091299 
0.069881 -0.898327 0.078939 
0.006395 -0.725047 0.199308 
0.069881 -0.898327 0.078939 
0.02924 -0.773027 0.124534 
0.006395 -0.725047 0.199308 
0.02924 -0.773027 0.124534 
0.005417 -0.735347 0.101017 
0.006395 -0.725047 0.199308 
0.005417 -0.735347 0.101017 
-0.01705 -0.773027 0.130371 
0.006395 -0.725047 0.199308 
-0.01705 -0.773027 0.130371 
-0.054691 -0.898327 0.090995 
0.006395 -0.725047 0.199308 
-0.054691 -0.898327 0.090995 
-0.077943 -0.930187 0.102973 
0.006395 -0.725047 0.199308 
-0.077943 -0.930187 0.102973 
-0.166531 -0.843547 0.124554 
0.006395 -0.725047 0.199308 
-0.166531 -0.843547 0.124554 
-0.215559 -0.649767 0.20588 
0.006395 -0.725047 0.199308 
-0.215559 -0.649767 0.20588 
-0.289485 -0.318507 0.316156 
0.006395 -0.725047 0.199308 
-0.289485 -0.318507 0.316156 
0.003995 -0.337317 0.370229 
0.006395 -0.725047 -0.064998 
0.003995 -0.337317 -0.141574 
-0.289485 -0.318507 -0.07713 
0.006395 -0.725047 -0.064998 
-0.289485 -0.318507 -0.07713 
-0.215559 -0.649767 -0.030087 
0.006395 -0.725047 -0.064998 
-0.215559 -0.649767 -0.030087 
-0.166531 -0.843547 0.000734 
0.006395 -0.725047 -0.064998 
-0.166531 -0.843547 0.000734 
-0.077943 -0.930187 -0.005732 
0.006395 -0.725047 -0.064998 
-0.077943 -0.930187 -0.005732 
-0.054691 -0.898327 4e-005 
0.006395 -0.725047 -0.064998 
-0.054691 -0.898327 4e-005 
-0.01705 -0.773027 -0.031649 
0.006395 -0.725047 -0.064998 
-0.01705 -0.773027 -0.031649 
0.005417 -0.735347 -0.014856 
0.006395 -0.725047 -0.064998 
0.005417 -0.735347 -0.014856 
0.02924 -0.773027 -0.040235 
0.006395 -0.725047 -0.064998 
0.02924 -0.773027 -0.040235 
0.069881 -0.898327 -0.015682 
0.006395 -0.725047 -0.064998 
0.069881 -0.898327 -0.015682 
0.094333 -0.930187 -0.022904 
0.006395 -0.725047 -0.064998 
0.094333 -0.930187 -0.022904 
0.181721 -0.843547 -0.014987 
0.006395 -0.725047 -0.064998 
0.181721 -0.843547 -0.014987 
0.227749 -0.649767 -0.038673 
0.006395 -0.725047 -0.064998 
0.227749 -0.649767 -0.038673 
0.297326 -0.318507 -0.079277 
0.006395 -0.725047 -0.064998 
0.297326 -0.318507 -0.079277 
0.003995 -0.337317 -0.141574 
-0.024865 -0.789017 0.04343 
0.004595 -0.684237 0.04152 
0.005417 -0.735347 -0.014856 
-0.024865 -0.789017 0.04343 
0.005417 -0.735347 -0.014856 
-0.01705 -0.773027 -0.031649 
-0.024865 -0.789017 0.04343 
-0.01705 -0.773027 -0.031649 
-0.054691 -0.898327 4e-005 
-0.024865 -0.789017 0.04343 
-0.054691 -0.898327 4e-005 
-0.059193 -0.946187 0.042689 
-0.024865 -0.789017 0.04343 
-0.059193 -0.946187 0.042689 
-0.054691 -0.898327 0.090995 
-0.024865 -0.789017 0.04343 
-0.054691 -0.898327 0.090995 
-0.01705 -0.773027 0.130371 
-0.024865 -0.789017 0.04343 
-0.01705 -0.773027 0.130371 
0.005417 -0.735347 0.101017 
-0.024865 -0.789017 0.04343 
0.005417 -0.735347 0.101017 
0.004595 -0.684237 0.04152 
0.036855 -0.789017 0.033815 
0.075382 -0.946187 0.025862 
0.069881 -0.898327 -0.015682 
0.036855 -0.789017 0.033815 
0.069881 -0.898327 -0.015682 
0.02924 -0.773027 -0.040235 
0.036855 -0.789017 0.033815 
0.02924 -0.773027 -0.040235 
0.005417 -0.735347 -0.014856 
0.036855 -0.789017 0.033815 
0.005417 -0.735347 -0.014856 
0.004595 -0.684237 0.04152 
0.036855 -0.789017 0.033815 
0.004595 -0.684237 0.04152 
0.005417 -0.735347 0.101017 
0.036855 -0.789017 0.033815 
0.005417 -0.735347 0.101017 
0.02924 -0.773027 0.124534 
0.036855 -0.789017 0.033815 
0.02924 -0.773027 0.124534 
0.069881 -0.898327 0.078939 
0.036855 -0.789017 0.033815 
0.069881 -0.898327 0.078939 
0.075382 -0.946187 0.025862 
-0.106056 -0.998577 0.042443 
-0.059193 -0.946187 0.042689 
-0.054691 -0.898327 4e-005 
-0.106056 -0.998577 0.042443 
-0.054691 -0.898327 4e-005 
-0.077943 -0.930187 -0.005732 
-0.106056 -0.998577 0.042443 
-0.077943 -0.930187 -0.005732 
-0.166531 -0.843547 0.000734 
-0.106056 -0.998577 0.042443 
-0.166531 -0.843547 0.000734 
-0.178493 -0.905097 0.055535 
-0.106056 -0.998577 0.042443 
-0.178493 -0.905097 0.055535 
-0.166531 -0.843547 0.124554 
-0.106056 -0.998577 0.042443 
-0.166531 -0.843547 0.124554 
-0.077943 -0.930187 0.102973 
-0.106056 -0.998577 0.042443 
-0.077943 -0.930187 0.102973 
-0.054691 -0.898327 0.090995 
-0.106056 -0.998577 0.042443 
-0.054691 -0.898327 0.090995 
-0.059193 -0.946187 0.042689 
-0.093413 -0.309977 0.341373 
-0.142722 -0.323807 0.396459 
-0.129594 -0.406997 0.379445 
-0.093413 -0.309977 0.341373 
-0.129594 -0.406997 0.379445 
-0.083228 -0.423867 0.339975 
-0.093413 -0.309977 0.341373 
-0.152205 -0.212407 0.331317 
-0.180689 -0.250367 0.373032 
-0.093413 -0.309977 0.341373 
-0.180689 -0.250367 0.373032 
-0.142722 -0.323807 0.396459 
-0.093413 -0.309977 0.341373 
-0.092711 -0.312467 0.274833 
-0.143643 -0.241977 0.282939 
-0.093413 -0.309977 0.341373 
-0.143643 -0.241977 0.282939 
-0.152205 -0.212407 0.331317 
-0.093413 -0.309977 0.341373 
-0.083228 -0.423867 0.339975 
-0.092549 -0.398607 0.289352 
-0.093413 -0.309977 0.341373 
-0.092549 -0.398607 0.289352 
-0.092711 -0.312467 0.274833 
-0.236611 -0.201657 0.312694 
-0.25012 -0.242567 0.37495 
-0.180689 -0.250367 0.373032 
-0.236611 -0.201657 0.312694 
-0.180689 -0.250367 0.373032 
-0.152205 -0.212407 0.331317 
-0.236611 -0.201657 0.312694 
-0.298024 -0.261387 0.296957 
-0.288703 -0.286647 0.34758 
-0.236611 -0.201657 0.312694 
-0.288703 -0.286647 0.34758 
-0.25012 -0.242567 0.37495 
-0.236611 -0.201657 0.312694 
-0.200109 -0.231227 0.253324 
-0.251657 -0.278247 0.257486 
-0.236611 -0.201657 0.312694 
-0.251657 -0.278247 0.257486 
-0.298024 -0.261387 0.296957 
-0.236611 -0.201657 0.312694 
-0.152205 -0.212407 0.331317 
-0.143643 -0.241977 0.282939 
-0.236611 -0.201657 0.312694 
-0.143643 -0.241977 0.282939 
-0.200109 -0.231227 0.253324 
-0.287838 -0.375277 0.295559 
-0.288541 -0.372777 0.362099 
-0.288703 -0.286647 0.34758 
-0.287838 -0.375277 0.295559 
-0.288703 -0.286647 0.34758 
-0.298024 -0.261387 0.296957 
-0.287838 -0.375277 0.295559 
-0.229047 -0.472837 0.305614 
-0.237608 -0.443277 0.353993 
-0.287838 -0.375277 0.295559 
-0.237608 -0.443277 0.353993 
-0.288541 -0.372777 0.362099 
-0.287838 -0.375277 0.295559 
-0.23853 -0.361447 0.240472 
-0.200563 -0.434887 0.263899 
-0.287838 -0.375277 0.295559 
-0.200563 -0.434887 0.263899 
-0.229047 -0.472837 0.305614 
-0.287838 -0.375277 0.295559 
-0.298024 -0.261387 0.296957 
-0.251657 -0.278247 0.257486 
-0.287838 -0.375277 0.295559 
-0.251657 -0.278247 0.257486 
-0.23853 -0.361447 0.240472 
-0.144641 -0.483597 0.324238 
-0.181143 -0.454017 0.383608 
-0.237608 -0.443277 0.353993 
-0.144641 -0.483597 0.324238 
-0.237608 -0.443277 0.353993 
-0.229047 -0.472837 0.305614 
-0.144641 -0.483597 0.324238 
-0.083228 -0.423867 0.339975 
-0.129594 -0.406997 0.379445 
-0.144641 -0.483597 0.324238 
-0.129594 -0.406997 0.379445 
-0.181143 -0.454017 0.383608 
-0.144641 -0.483597 0.324238 
-0.131132 -0.442687 0.261982 
-0.092549 -0.398607 0.289352 
-0.144641 -0.483597 0.324238 
-0.092549 -0.398607 0.289352 
-0.083228 -0.423867 0.339975 
-0.144641 -0.483597 0.324238 
-0.229047 -0.472837 0.305614 
-0.200563 -0.434887 0.263899 
-0.144641 -0.483597 0.324238 
-0.200563 -0.434887 0.263899 
-0.131132 -0.442687 0.261982 
-0.157285 -0.335067 0.237382 
-0.092711 -0.312467 0.274833 
-0.092549 -0.398607 0.289352 
-0.157285 -0.335067 0.237382 
-0.092549 -0.398607 0.289352 
-0.131132 -0.442687 0.261982 
-0.157285 -0.335067 0.237382 
-0.200109 -0.231227 0.253324 
-0.143643 -0.241977 0.282939 
-0.157285 -0.335067 0.237382 
-0.143643 -0.241977 0.282939 
-0.092711 -0.312467 0.274833 
-0.157285 -0.335067 0.237382 
-0.23853 -0.361447 0.240472 
-0.251657 -0.278247 0.257486 
-0.157285 -0.335067 0.237382 
-0.251657 -0.278247 0.257486 
-0.200109 -0.231227 0.253324 
-0.157285 -0.335067 0.237382 
-0.131132 -0.442687 0.261982 
-0.200563 -0.434887 0.263899 
-0.157285 -0.335067 0.237382 
-0.200563 -0.434887 0.263899 
-0.23853 -0.361447 0.240472 
-0.223966 -0.350177 0.39955 
-0.288541 -0.372777 0.362099 
-0.237608 -0.443277 0.353993 
-0.223966 -0.350177 0.39955 
-0.237608 -0.443277 0.353993 
-0.181143 -0.454017 0.383608 
-0.223966 -0.350177 0.39955 
-0.25012 -0.242567 0.37495 
-0.288703 -0.286647 0.34758 
-0.223966 -0.350177 0.39955 
-0.288703 -0.286647 0.34758 
-0.288541 -0.372777 0.362099 
-0.223966 -0.350177 0.39955 
-0.142722 -0.323807 0.396459 
-0.180689 -0.250367 0.373032 
-0.223966 -0.350177 0.39955 
-0.180689 -0.250367 0.373032 
-0.25012 -0.242567 0.37495 
-0.223966 -0.350177 0.39955 
-0.181143 -0.454017 0.383608 
-0.129594 -0.406997 0.379445 
-0.223966 -0.350177 0.39955 
-0.129594 -0.406997 0.379445 
-0.142722 -0.323807 0.396459 
-0.408453 -0.122677 0.095798 
-0.302679 -0.122677 -0.127065 
-0.22041 -0.051507 -0.097831 
-0.408453 -0.122677 0.095798 
-0.22041 -0.051507 -0.097831 
-0.302679 -0.026599 0.057262 
-0.408453 -0.122677 0.095798 
-0.377264 -0.312227 0.118837 
-0.279487 -0.318507 -0.079277 
-0.408453 -0.122677 0.095798 
-0.279487 -0.318507 -0.079277 
-0.302679 -0.122677 -0.127065 
-0.408453 -0.122677 0.095798 
-0.302679 -0.122677 0.318661 
-0.279487 -0.318507 0.314697 
-0.408453 -0.122677 0.095798 
-0.279487 -0.318507 0.314697 
-0.377264 -0.312227 0.118837 
-0.408453 -0.122677 0.095798 
-0.302679 -0.026599 0.057262 
-0.22041 -0.051507 0.232337 
-0.408453 -0.122677 0.095798 
-0.22041 -0.051507 0.232337 
-0.302679 -0.122677 0.318661 
-0.105806 -0.998577 0.023212 
-0.076494 -0.930187 -0.022904 
-0.163882 -0.843547 -0.014987 
-0.105806 -0.998577 0.023212 
-0.163882 -0.843547 -0.014987 
-0.176844 -0.905097 0.038708 
-0.105806 -0.998577 0.023212 
-0.057544 -0.946187 0.025862 
-0.052042 -0.898327 -0.015682 
-0.105806 -0.998577 0.023212 
-0.052042 -0.898327 -0.015682 
-0.076494 -0.930187 -0.022904 
-0.105806 -0.998577 0.023212 
-0.076494 -0.930187 0.091299 
-0.052042 -0.898327 0.078939 
-0.105806 -0.998577 0.023212 
-0.052042 -0.898327 0.078939 
-0.057544 -0.946187 0.025862 
-0.105806 -0.998577 0.023212 
-0.176844 -0.905097 0.038708 
-0.163882 -0.843547 0.112498 
-0.105806 -0.998577 0.023212 
-0.163882 -0.843547 0.112498 
-0.076494 -0.930187 0.091299 
0.437741 -0.122677 0.095798 
0.331966 -0.122677 -0.127065 
0.307324 -0.318507 -0.07713 
0.437741 -0.122677 0.095798 
0.307324 -0.318507 -0.07713 
0.405151 -0.312227 0.121241 
0.437741 -0.122677 0.095798 
0.331966 -0.026599 0.057262 
0.249698 -0.051507 -0.097831 
0.437741 -0.122677 0.095798 
0.249698 -0.051507 -0.097831 
0.331966 -0.122677 -0.127065 
0.437741 -0.122677 0.095798 
0.331966 -0.122677 0.318661 
0.249698 -0.051507 0.232337 
0.437741 -0.122677 0.095798 
0.249698 -0.051507 0.232337 
0.331966 -0.026599 0.057262 
0.437741 -0.122677 0.095798 
0.405151 -0.312227 0.121241 
0.307324 -0.318507 0.316156 
0.437741 -0.122677 0.095798 
0.307324 -0.318507 0.316156 
0.331966 -0.122677 0.318661 
0.014644 0.005427 0.044417 
0.014644 -0.026599 -0.165601 
0.249698 -0.051507 -0.097831 
0.014644 0.005427 0.044417 
0.249698 -0.051507 -0.097831 
0.331966 -0.026599 0.057262 
0.014644 0.005427 0.044417 
-0.302679 -0.026599 0.057262 
-0.22041 -0.051507 -0.097831 
0.014644 0.005427 0.044417 
-0.22041 -0.051507 -0.097831 
0.014644 -0.026599 -0.165601 
0.014644 0.005427 0.044417 
0.014644 -0.026599 0.280126 
-0.22041 -0.051507 0.232337 
0.014644 0.005427 0.044417 
-0.22041 -0.051507 0.232337 
-0.302679 -0.026599 0.057262 
0.014644 0.005427 0.044417 
0.331966 -0.026599 0.057262 
0.249698 -0.051507 0.232337 
0.014644 0.005427 0.044417 
0.249698 -0.051507 0.232337 
0.014644 -0.026599 0.280126 
0.014644 -0.122677 0.392949 
-0.302679 -0.122677 0.318661 
-0.22041 -0.051507 0.232337 
0.014644 -0.122677 0.392949 
-0.22041 -0.051507 0.232337 
0.014644 -0.026599 0.280126 
0.014644 -0.122677 0.392949 
0.013844 -0.337317 0.370229 
-0.279487 -0.318507 0.314697 
0.014644 -0.122677 0.392949 
-0.279487 -0.318507 0.314697 
-0.302679 -0.122677 0.318661 
0.014644 -0.122677 0.392949 
0.331966 -0.122677 0.318661 
0.307324 -0.318507 0.316156 
0.014644 -0.122677 0.392949 
0.307324 -0.318507 0.316156 
0.013844 -0.337317 0.370229 
0.014644 -0.122677 0.392949 
0.014644 -0.026599 0.280126 
0.249698 -0.051507 0.232337 
0.014644 -0.122677 0.392949 
0.249698 -0.051507 0.232337 
0.331966 -0.122677 0.318661 
0.014644 -0.122677 -0.201353 
0.331966 -0.122677 -0.127065 
0.249698 -0.051507 -0.097831 
0.014644 -0.122677 -0.201353 
0.249698 -0.051507 -0.097831 
0.014644 -0.026599 -0.165601 
0.014644 -0.122677 -0.201353 
0.013844 -0.337317 -0.141574 
0.307324 -0.318507 -0.07713 
0.014644 -0.122677 -0.201353 
0.307324 -0.318507 -0.07713 
0.331966 -0.122677 -0.127065 
0.014644 -0.122677 -0.201353 
-0.302679 -0.122677 -0.127065 
-0.279487 -0.318507 -0.079277 
0.014644 -0.122677 -0.201353 
-0.279487 -0.318507 -0.079277 
0.013844 -0.337317 -0.141574 
0.014644 -0.122677 -0.201353 
0.014644 -0.026599 -0.165601 
-0.22041 -0.051507 -0.097831 
0.014644 -0.122677 -0.201353 
-0.22041 -0.051507 -0.097831 
-0.302679 -0.122677 -0.127065 
0.307383 -0.624677 0.094811 
0.233398 -0.649767 -0.030087 
0.18437 -0.843547 0.000734 
0.307383 -0.624677 0.094811 
0.18437 -0.843547 0.000734 
0.196332 -0.905097 0.055535 
0.307383 -0.624677 0.094811 
0.405151 -0.312227 0.121241 
0.307324 -0.318507 -0.07713 
0.307383 -0.624677 0.094811 
0.307324 -0.318507 -0.07713 
0.233398 -0.649767 -0.030087 
0.307383 -0.624677 0.094811 
0.233398 -0.649767 0.20588 
0.307324 -0.318507 0.316156 
0.307383 -0.624677 0.094811 
0.307324 -0.318507 0.316156 
0.405151 -0.312227 0.121241 
0.307383 -0.624677 0.094811 
0.196332 -0.905097 0.055535 
0.18437 -0.843547 0.124554 
0.307383 -0.624677 0.094811 
0.18437 -0.843547 0.124554 
0.233398 -0.649767 0.20588 
-0.283695 -0.624677 0.085195 
-0.20991 -0.649767 -0.038673 
-0.279487 -0.318507 -0.079277 
-0.283695 -0.624677 0.085195 
-0.279487 -0.318507 -0.079277 
-0.377264 -0.312227 0.118837 
-0.283695 -0.624677 0.085195 
-0.176844 -0.905097 0.038708 
-0.163882 -0.843547 -0.014987 
-0.283695 -0.624677 0.085195 
-0.163882 -0.843547 -0.014987 
-0.20991 -0.649767 -0.038673 
-0.283695 -0.624677 0.085195 
-0.20991 -0.649767 0.200043 
-0.163882 -0.843547 0.112498 
-0.283695 -0.624677 0.085195 
-0.163882 -0.843547 0.112498 
-0.176844 -0.905097 0.038708 
-0.283695 -0.624677 0.085195 
-0.377264 -0.312227 0.118837 
-0.279487 -0.318507 0.314697 
-0.283695 -0.624677 0.085195 
-0.279487 -0.318507 0.314697 
-0.20991 -0.649767 0.200043 
0.011444 -0.725047 0.199308 
-0.20991 -0.649767 0.200043 
-0.279487 -0.318507 0.314697 
0.011444 -0.725047 0.199308 
-0.279487 -0.318507 0.314697 
0.013844 -0.337317 0.370229 
0.011444 -0.725047 0.199308 
-0.076494 -0.930187 0.091299 
-0.163882 -0.843547 0.112498 
0.011444 -0.725047 0.199308 
-0.163882 -0.843547 0.112498 
-0.20991 -0.649767 0.200043 
0.011444 -0.725047 0.199308 
-0.011401 -0.773027 0.124534 
-0.052042 -0.898327 0.078939 
0.011444 -0.725047 0.199308 
-0.052042 -0.898327 0.078939 
-0.076494 -0.930187 0.091299 
0.011444 -0.725047 0.199308 
0.034889 -0.773027 0.130371 
0.012422 -0.735347 0.101017 
0.011444 -0.725047 0.199308 
0.012422 -0.735347 0.101017 
-0.011401 -0.773027 0.124534 
0.011444 -0.725047 0.199308 
0.095782 -0.930187 0.102973 
0.07253 -0.898327 0.090995 
0.011444 -0.725047 0.199308 
0.07253 -0.898327 0.090995 
0.034889 -0.773027 0.130371 
0.011444 -0.725047 0.199308 
0.233398 -0.649767 0.20588 
0.18437 -0.843547 0.124554 
0.011444 -0.725047 0.199308 
0.18437 -0.843547 0.124554 
0.095782 -0.930187 0.102973 
0.011444 -0.725047 0.199308 
0.013844 -0.337317 0.370229 
0.307324 -0.318507 0.316156 
0.011444 -0.725047 0.199308 
0.307324 -0.318507 0.316156 
0.233398 -0.649767 0.20588 
0.011444 -0.725047 -0.064998 
0.233398 -0.649767 -0.030087 
0.307324 -0.318507 -0.07713 
0.011444 -0.725047 -0.064998 
0.307324 -0.318507 -0.07713 
0.013844 -0.337317 -0.141574 
0.011444 -0.725047 -0.064998 
0.095782 -0.930187 -0.005732 
0.18437 -0.843547 0.000734 
0.011444 -0.725047 -0.064998 
0.18437 -0.843547 0.000734 
0.233398 -0.649767 -0.030087 
0.011444 -0.725047 -0.064998 
0.034889 -0.773027 -0.031649 
0.07253 -0.898327 4e-005 
0.011444 -0.725047 -0.064998 
0.07253 -0.898327 4e-005 
0.095782 -0.930187 -0.005732 
0.011444 -0.725047 -0.064998 
-0.011401 -0.773027 -0.040235 
0.012422 -0.735347 -0.014856 
0.011444 -0.725047 -0.064998 
0.012422 -0.735347 -0.014856 
0.034889 -0.773027 -0.031649 
0.011444 -0.725047 -0.064998 
-0.076494 -0.930187 -0.022904 
-0.052042 -0.898327 -0.015682 
0.011444 -0.725047 -0.064998 
-0.052042 -0.898327 -0.015682 
-0.011401 -0.773027 -0.040235 
0.011444 -0.725047 -0.064998 
-0.20991 -0.649767 -0.038673 
-0.163882 -0.843547 -0.014987 
0.011444 -0.725047 -0.064998 
-0.163882 -0.843547 -0.014987 
-0.076494 -0.930187 -0.022904 
0.011444 -0.725047 -0.064998 
0.013844 -0.337317 -0.141574 
-0.279487 -0.318507 -0.079277 
0.011444 -0.725047 -0.064998 
-0.279487 -0.318507 -0.079277 
-0.20991 -0.649767 -0.038673 
0.042704 -0.789017 0.04343 
0.034889 -0.773027 -0.031649 
0.012422 -0.735347 -0.014856 
0.042704 -0.789017 0.04343 
0.012422 -0.735347 -0.014856 
0.013244 -0.684237 0.04152 
0.042704 -0.789017 0.04343 
0.077032 -0.946187 0.042689 
0.07253 -0.898327 4e-005 
0.042704 -0.789017 0.04343 
0.07253 -0.898327 4e-005 
0.034889 -0.773027 -0.031649 
0.042704 -0.789017 0.04343 
0.034889 -0.773027 0.130371 
0.07253 -0.898327 0.090995 
0.042704 -0.789017 0.04343 
0.07253 -0.898327 0.090995 
0.077032 -0.946187 0.042689 
0.042704 -0.789017 0.04343 
0.013244 -0.684237 0.04152 
0.012422 -0.735347 0.101017 
0.042704 -0.789017 0.04343 
0.012422 -0.735347 0.101017 
0.034889 -0.773027 0.130371 
-0.019016 -0.789017 0.033815 
-0.011401 -0.773027 -0.040235 
-0.052042 -0.898327 -0.015682 
-0.019016 -0.789017 0.033815 
-0.052042 -0.898327 -0.015682 
-0.057544 -0.946187 0.025862 
-0.019016 -0.789017 0.033815 
0.013244 -0.684237 0.04152 
0.012422 -0.735347 -0.014856 
-0.019016 -0.789017 0.033815 
0.012422 -0.735347 -0.014856 
-0.011401 -0.773027 -0.040235 
-0.019016 -0.789017 0.033815 
-0.011401 -0.773027 0.124534 
0.012422 -0.735347 0.101017 
-0.019016 -0.789017 0.033815 
0.012422 -0.735347 0.101017 
0.013244 -0.684237 0.04152 
-0.019016 -0.789017 0.033815 
-0.057544 -0.946187 0.025862 
-0.052042 -0.898327 0.078939 
-0.019016 -0.789017 0.033815 
-0.052042 -0.898327 0.078939 
-0.011401 -0.773027 0.124534 
0.123895 -0.998577 0.042443 
0.095782 -0.930187 -0.005732 
0.07253 -0.898327 4e-005 
0.123895 -0.998577 0.042443 
0.07253 -0.898327 4e-005 
0.077032 -0.946187 0.042689 
0.123895 -0.998577 0.042443 
0.196332 -0.905097 0.055535 
0.18437 -0.843547 0.000734 
0.123895 -0.998577 0.042443 
0.18437 -0.843547 0.000734 
0.095782 -0.930187 -0.005732 
0.123895 -0.998577 0.042443 
0.095782 -0.930187 0.102973 
0.18437 -0.843547 0.124554 
0.123895 -0.998577 0.042443 
0.18437 -0.843547 0.124554 
0.196332 -0.905097 0.055535 
0.123895 -0.998577 0.042443 
0.077032 -0.946187 0.042689 
0.07253 -0.898327 0.090995 
0.123895 -0.998577 0.042443 
0.07253 -0.898327 0.090995 
0.095782 -0.930187 0.102973 
3 0 1 2 
3 3 4 5 
3 6 7 8 
3 9 10 11 
3 12 13 14 
3 15 16 17 
3 18 19 20 
3 21 22 23 
3 24 25 26 
3 27 28 29 
3 30 31 32 
3 33 34 35 
3 36 37 38 
3 39 40 41 
3 42 43 44 
3 45 46 47 
3 48 49 50 
3 51 52 53 
3 54 55 56 
3 57 58 59 
3 60 61 62 
3 63 64 65 
3 66 67 68 
3 69 70 71 
3 72 73 74 
3 75 76 77 
3 78 79 80 
3 81 82 83 
3 84 85 86 
3 87 88 89 
3 90 91 92 
3 93 94 95 
3 96 97 98 
3 99 100 101 
3 102 103 104 
3 105 106 107 
3 108 109 110 
3 111 112 113 
3 114 115 116 
3 117 118 119 
3 120 121 122 
3 123 124 125 
3 126 127 128 
3 129 130 131 
3 132 133 134 
3 135 136 137 
3 138 139 140 
3 141 142 143 
3 144 145 146 
3 147 148 149 
3 150 151 152 
3 153 154 155 
3 156 157 158 
3 159 160 161 
3 162 163 164 
3 165 166 167 
3 168 169 170 
3 171 172 173 
3 174 175 176 
3 177 178 179 
3 180 181 182 
3 183 184 185 
3 186 187 188 
3 189 190 191 
3 192 193 194 
3 195 196 197 
3 198 199 200 
3 201 202 203 
3 204 205 206 
3 207 208 209 
3 210 211 212 
3 213 214 215 
3 216 217 218 
3 219 220 221 
3 222 223 224 
3 225 226 227 
3 228 229 230 
3 231 232 233 
3 234 235 236 
3 237 238 239 
3 240 241 242 
3 243 244 245 
3 246 247 248 
3 249 250 251 
3 252 253 254 
3 255 256 257 
3 258 259 260 
3 261 262 263 
3 264 265 266 
3 267 268 269 
3 270 271 272 
3 273 274 275 
3 276 277 278 
3 279 280 281 
3 282 283 284 
3 285 286 287 
3 288 289 290 
3 291 292 293 
3 294 295 296 
3 297 298 299 
3 300 301 302 
3 303 304 305 
3 306 307 308 
3 309 310 311 
3 312 313 314 
3 315 316 317 
3 318 319 320 
3 321 322 323 
3 324 325 326 
3 327 328 329 
3 330 331 332 
3 333 334 335 
3 336 337 338 
3 339 340 341 
3 342 343 344 
3 345 346 347 
3 348 349 350 
3 351 352 353 
3 354 355 356 
3 357 358 359 
3 360 361 362 
3 363 364 365 
3 366 367 368 
3 369 370 371 
3 372 373 374 
3 375 376 377 
3 378 379 380 
3 381 382 383 
3 384 385 386 
3 387 388 389 
3 390 391 392 
3 393 394 395 
3 396 397 398 
3 399 400 401 
3 402 403 404 
3 405 406 407 
3 408 409 410 
3 411 412 413 
3 414 415 416 
3 417 418 419 
3 420 421 422 
3 423 424 425 
3 426 427 428 
3 429 430 431 
3 432 433 434 
3 435 436 437 
3 438 439 440 
3 441 442 443 
3 444 445 446 
3 447 448 449 
3 450 451 452 
3 453 454 455 
3 456 457 458 
3 459 460 461 
3 462 463 464 
3 465 466 467 
3 468 469 470 
3 471 472 473 
3 474 475 476 
3 477 478 479 
3 480 481 482 
3 483 484 485 
3 486 487 488 
3 489 490 491 
3 492 493 494 
3 495 496 497 
3 498 499 500 
3 501 502 503 
3 504 505 506 
3 507 508 509 
3 510 511 512 
3 513 514 515 
3 516 517 518 
3 519 520 521 
3 522 523 524 
3 525 526 527 
3 528 529 530 
3 531 532 533 
3 534 535 536 
3 537 538 539 
3 540 541 542 
3 543 544 545 
3 546 547 548 
3 549 550 551 
3 552 553 554 
3 555 556 557 
3 558 559 560 
3 561 562 563 
3 564 565 566 
3 567 568 569 
3 570 571 572 
3 573 574 575 
3 576 577 578 
3 579 580 581 
3 582 583 584 
3 585 586 587 
3 588 589 590 
3 591 592 593 
3 594 595 596 
3 597 598 599 
3 600 601 602 
3 603 604 605 
3 606 607 608 
3 609 610 611 
3 612 613 614 
3 615 616 617 
3 618 619 620 
3 621 622 623 
3 624 625 626 
3 627 628 629 
3 630 631 632 
3 633 634 635 
3 636 637 638 
3 639 640 641 
3 642 643 644 
3 645 646 647 
3 648 649 650 
3 651 652 653 
3 654 655 656 
3 657 658 659 
3 660 661 662 
3 663 664 665 
3 666 667 668 
3 669 670 671 
3 672 673 674 
3 675 676 677 
3 678 679 680 
3 681 682 683 
3 684 685 686 
3 687 688 689 
3 690 691 692 
3 693 694 695 
3 696 697 698 
3 699 700 701 
3 702 703 704 
3 705 706 707 
3 708 709 710 
3 711 712 713 
3 714 715 716 
3 717 718 719 
3 720 721 722 
3 723 724 725 
3 726 727 728 
3 729 730 731 
3 732 733 734 
3 735 736 737 
3 738 739 740 
3 741 742 743 
3 744 745 746 
3 747 748 749 
3 750 751 752 
3 753 754 755 
3 756 757 758 
3 759 760 761 
3 762 763 764 
3 765 766 767 
3 768 769 770 
3 771 772 773 
3 774 775 776 
3 777 778 779 
3 780 781 782 
3 783 784 785 
3 786 787 788 
3 789 790 791 
3 792 793 794 
3 795 796 797 
3 798 799 800 
3 801 802 803 
3 804 805 806 
3 807 808 809 
3 810 811 812 
3 813 814 815 
3 816 817 818 
3 819 820 821 
3 822 823 824 
3 825 826 827 
3 828 829 830 
3 831 832 833 
3 834 835 836 
3 837 838 839 
3 840 841 842 
3 843 844 845 
3 846 847 848 
3 849 850 851 
3 852 853 854 
3 855 856 857 
3 858 859 860 
3 861 862 863 
3 864 865 866 
3 867 868 869 
3 870 871 872 
3 873 874 875 
3 876 877 878 
3 879 880 881 
3 882 883 884 
3 885 886 887 
3 888 889 890 
3 891 892 893 
3 894 895 896 
3 897 898 899 
3 900 901 902 
3 903 904 905 
3 906 907 908 
3 909 910 911 
3 912 913 914 
3 915 916 917 
3 918 919 920 
3 921 922 923 
3 924 925 926 
3 927 928 929 
3 930 931 932 
3 933 934 935 
3 936 937 938 
3 939 940 941 
3 942 943 944 
3 945 946 947 
3 948 949 950 
3 951 952 953 
3 954 955 956 
3 957 958 959 
3 960 961 962 
3 963 964 965 
3 966 967 968 
3 969 970 971 
3 972 973 974 
3 975 976 977 
3 978 979 980 
3 981 982 983 
