ply
format ascii 1.0
comment VCGLIB generated
element vertex 160
property float x
property float y
property float z
element face 80
property list uchar int vertex_indices
end_header
-0.309125 0.159145 0.160686 
-0.231582 0.042627 0.037894 
-0.171271 0.072835 0.242047 
-0.231582 0.159145 0.393315 
-0.309125 0.159145 0.160686 
-0.231582 0.159145 0.393315 
-0.231582 0.33615 0.475176 
-0.309125 0.33615 0.242548 
-0.309125 0.159145 0.160686 
-0.309125 0.33615 0.242548 
-0.231582 0.33615 0.009919 
-0.231582 0.159145 -0.071942 
-0.309125 0.159145 0.160686 
-0.231582 0.159145 -0.071942 
-0.171271 0.072835 -0.102588 
-0.231582 0.042627 0.037894 
0.001046 0.798399 -0.003036 
-0.231582 0.737912 0.037894 
-0.171271 0.690866 0.242047 
0.001046 0.737912 0.270523 
0.001046 0.798399 -0.003036 
0.001046 0.737912 0.270523 
0.173364 0.690866 0.242047 
0.233675 0.737912 0.037894 
0.001046 0.798399 -0.003036 
0.233675 0.737912 0.037894 
0.173364 0.690866 -0.102588 
0.001046 0.737912 -0.194734 
0.001046 0.798399 -0.003036 
0.001046 0.737912 -0.194734 
-0.171271 0.690866 -0.102588 
-0.231582 0.737912 0.037894 
0.311218 0.159145 0.160686 
0.311218 0.33615 0.242548 
0.233675 0.33615 0.475176 
0.233675 0.159145 0.393315 
0.311218 0.159145 0.160686 
0.233675 0.159145 0.393315 
0.173364 0.072835 0.242047 
0.233675 0.042627 0.037894 
0.311218 0.159145 0.160686 
0.233675 0.042627 0.037894 
0.173364 0.072835 -0.102588 
0.233675 0.159145 -0.071942 
0.311218 0.159145 0.160686 
0.233675 0.159145 -0.071942 
0.233675 0.33615 0.009919 
0.311218 0.33615 0.242548 
0.001046 0.003788 -0.003036 
0.233675 0.042627 0.037894 
0.173364 0.072835 0.242047 
0.001046 0.042627 0.270523 
0.001046 0.003788 -0.003036 
0.001046 0.042627 0.270523 
-0.171271 0.072835 0.242047 
-0.231582 0.042627 0.037894 
0.001046 0.003788 -0.003036 
-0.231582 0.042627 0.037894 
-0.171271 0.072835 -0.102588 
0.001046 0.042627 -0.194734 
0.001046 0.003788 -0.003036 
0.001046 0.042627 -0.194734 
0.173364 0.072835 -0.102588 
0.233675 0.042627 0.037894 
0.001046 0.159145 -0.149485 
0.001046 0.042627 -0.194734 
-0.171271 0.072835 -0.102588 
-0.231582 0.159145 -0.071942 
0.001046 0.159145 -0.149485 
-0.231582 0.159145 -0.071942 
-0.231582 0.33615 0.009919 
0.001046 0.33615 -0.067624 
0.001046 0.159145 -0.149485 
0.001046 0.33615 -0.067624 
0.233675 0.33615 0.009919 
0.233675 0.159145 -0.071942 
0.001046 0.159145 -0.149485 
0.233675 0.159145 -0.071942 
0.173364 0.072835 -0.102588 
0.001046 0.042627 -0.194734 
0.001046 0.159145 0.470858 
0.001046 0.042627 0.270523 
0.173364 0.072835 0.242047 
0.233675 0.159145 0.393315 
0.001046 0.159145 0.470858 
0.233675 0.159145 0.393315 
0.233675 0.33615 0.475176 
0.001046 0.33615 0.552719 
0.001046 0.159145 0.470858 
0.001046 0.33615 0.552719 
-0.231582 0.33615 0.475176 
-0.231582 0.159145 0.393315 
0.001046 0.159145 0.470858 
-0.231582 0.159145 0.393315 
-0.171271 0.072835 0.242047 
0.001046 0.042627 0.270523 
-0.309125 0.55645 0.160686 
-0.309125 0.33615 0.242548 
-0.231582 0.33615 0.475176 
-0.231582 0.55645 0.393315 
-0.309125 0.55645 0.160686 
-0.231582 0.55645 0.393315 
-0.171271 0.690866 0.242047 
-0.231582 0.737912 0.037894 
-0.309125 0.55645 0.160686 
-0.231582 0.737912 0.037894 
-0.171271 0.690866 -0.102588 
-0.231582 0.55645 -0.071942 
-0.309125 0.55645 0.160686 
-0.231582 0.55645 -0.071942 
-0.231582 0.33615 0.009919 
-0.309125 0.33615 0.242548 
0.001046 0.55645 -0.149485 
0.001046 0.33615 -0.067624 
-0.231582 0.33615 0.009919 
-0.231582 0.55645 -0.071942 
0.001046 0.55645 -0.149485 
-0.231582 0.55645 -0.071942 
-0.171271 0.690866 -0.102588 
0.001046 0.737912 -0.194734 
0.001046 0.55645 -0.149485 
0.001046 0.737912 -0.194734 
0.173364 0.690866 -0.102588 
0.233675 0.55645 -0.071942 
0.001046 0.55645 -0.149485 
0.233675 0.55645 -0.071942 
0.233675 0.33615 0.009919 
0.001046 0.33615 -0.067624 
0.001046 0.55645 0.470858 
0.001046 0.33615 0.552719 
0.233675 0.33615 0.475176 
0.233675 0.55645 0.393315 
0.001046 0.55645 0.470858 
0.233675 0.55645 0.393315 
0.173364 0.690866 0.242047 
0.001046 0.737912 0.270523 
0.001046 0.55645 0.470858 
0.001046 0.737912 0.270523 
-0.171271 0.690866 0.242047 
-0.231582 0.55645 0.393315 
0.001046 0.55645 0.470858 
-0.231582 0.55645 0.393315 
-0.231582 0.33615 0.475176 
0.001046 0.33615 0.552719 
0.311218 0.55645 0.160686 
0.233675 0.737912 0.037894 
0.173364 0.690866 0.242047 
0.233675 0.55645 0.393315 
0.311218 0.55645 0.160686 
0.233675 0.55645 0.393315 
0.233675 0.33615 0.475176 
0.311218 0.33615 0.242548 
0.311218 0.55645 0.160686 
0.311218 0.33615 0.242548 
0.233675 0.33615 0.009919 
0.233675 0.55645 -0.071942 
0.311218 0.55645 0.160686 
0.233675 0.55645 -0.071942 
0.173364 0.690866 -0.102588 
0.233675 0.737912 0.037894 
3 0 1 2 
3 0 2 3 
3 4 5 6 
3 4 6 7 
3 8 9 10 
3 8 10 11 
3 12 13 14 
3 12 14 15 
3 16 17 18 
3 16 18 19 
3 20 21 22 
3 20 22 23 
3 24 25 26 
3 24 26 27 
3 28 29 30 
3 28 30 31 
3 32 33 34 
3 32 34 35 
3 36 37 38 
3 36 38 39 
3 40 41 42 
3 40 42 43 
3 44 45 46 
3 44 46 47 
3 48 49 50 
3 48 50 51 
3 52 53 54 
3 52 54 55 
3 56 57 58 
3 56 58 59 
3 60 61 62 
3 60 62 63 
3 64 65 66 
3 64 66 67 
3 68 69 70 
3 68 70 71 
3 72 73 74 
3 72 74 75 
3 76 77 78 
3 76 78 79 
3 80 81 82 
3 80 82 83 
3 84 85 86 
3 84 86 87 
3 88 89 90 
3 88 90 91 
3 92 93 94 
3 92 94 95 
3 96 97 98 
3 96 98 99 
3 100 101 102 
3 100 102 103 
3 104 105 106 
3 104 106 107 
3 108 109 110 
3 108 110 111 
3 112 113 114 
3 112 114 115 
3 116 117 118 
3 116 118 119 
3 120 121 122 
3 120 122 123 
3 124 125 126 
3 124 126 127 
3 128 129 130 
3 128 130 131 
3 132 133 134 
3 132 134 135 
3 136 137 138 
3 136 138 139 
3 140 141 142 
3 140 142 143 
3 144 145 146 
3 144 146 147 
3 148 149 150 
3 148 150 151 
3 152 153 154 
3 152 154 155 
3 156 157 158 
3 156 158 159 
